<mxfile host="app.diagrams.net" modified="2023-11-09T11:49:06.288Z" agent="Mozilla/5.0 (Windows NT 10.0; Win64; x64) AppleWebKit/537.36 (KHTML, like Gecko) Chrome/119.0.0.0 Safari/537.36" version="21.3.7" etag="4fkpq7Cxy9Zi4ZLCkp1d" type="github">
  <diagram name="Page-1" id="eY8V6y4jUVBN2QXuLiEr">
    <mxGraphModel>
      <root>
        <mxCell id="0" />
        <mxCell id="1" parent="0" />
      </root>
    </mxGraphModel>
  </diagram>
</mxfile>
